<?xml version="1.0" encoding="UTF-8" standalone="no"?>
<!-- Created with Inkscape (http://www.inkscape.org/) -->

<svg
   xmlns:dc="http://purl.org/dc/elements/1.1/"
   xmlns:cc="http://creativecommons.org/ns#"
   xmlns:rdf="http://www.w3.org/1999/02/22-rdf-syntax-ns#"
   xmlns:svg="http://www.w3.org/2000/svg"
   xmlns="http://www.w3.org/2000/svg"
   xmlns:xlink="http://www.w3.org/1999/xlink"
   xmlns:sodipodi="http://sodipodi.sourceforge.net/DTD/sodipodi-0.dtd"
   xmlns:inkscape="http://www.inkscape.org/namespaces/inkscape"
   width="306.92337mm"
   height="233.51668mm"
   viewBox="0 0 306.92337 233.51668"
   version="1.1"
   id="svg864"
   inkscape:version="0.92.3 (2405546, 2018-03-11)"
   sodipodi:docname="casa.svg">
  <defs
     id="defs858">
    <linearGradient
       inkscape:collect="always"
       xlink:href="#linearGradient2005"
       id="linearGradient2042"
       gradientUnits="userSpaceOnUse"
       gradientTransform="translate(1193.2709,-848.21142)"
       x1="-965.3512"
       y1="1060.1635"
       x2="-965.3512"
       y2="1185.1904" />
    <linearGradient
       inkscape:collect="always"
       id="linearGradient2005">
      <stop
         style="stop-color:#ffffff;stop-opacity:1"
         offset="0"
         id="stop2001" />
      <stop
         style="stop-color:#ffffff;stop-opacity:0.00823045"
         offset="1"
         id="stop2003" />
    </linearGradient>
    <filter
       inkscape:collect="always"
       style="color-interpolation-filters:sRGB"
       id="filter2019"
       x="-0.031424388"
       width="1.0628488"
       y="-0.042135179"
       height="1.0842704">
      <feGaussianBlur
         inkscape:collect="always"
         stdDeviation="3.7810635"
         id="feGaussianBlur2021" />
    </filter>
  </defs>
  <sodipodi:namedview
     id="base"
     pagecolor="#ffffff"
     bordercolor="#666666"
     borderopacity="1.0"
     inkscape:pageopacity="0.0"
     inkscape:pageshadow="2"
     inkscape:zoom="0.35"
     inkscape:cx="337.15549"
     inkscape:cy="219.88803"
     inkscape:document-units="mm"
     inkscape:current-layer="layer1"
     showgrid="false"
     inkscape:window-width="1920"
     inkscape:window-height="1017"
     inkscape:window-x="-8"
     inkscape:window-y="-8"
     inkscape:window-maximized="1" />
  <metadata
     id="metadata861">
    <rdf:RDF>
      <cc:Work
         rdf:about="">
        <dc:format>image/svg+xml</dc:format>
        <dc:type
           rdf:resource="http://purl.org/dc/dcmitype/StillImage" />
        <dc:title />
      </cc:Work>
    </rdf:RDF>
  </metadata>
  <g
     inkscape:label="Capa 1"
     inkscape:groupmode="layer"
     id="layer1"
     transform="translate(-70.30023,-154.92393)">
    <path
       inkscape:connector-curvature="0"
       id="path2036"
       d="m 226.18038,164.00198 c -0.26998,0.1037 -6.55962,4.4847 -13.9769,9.7358 -7.41729,5.25108 -21.39228,15.14618 -31.05558,21.98878 -24.8786,17.6164 -34.5139,24.4277 -70.2004,49.6265 -17.3532,12.2535 -31.5587,22.4423 -31.5727,22.6415 -0.02,0.3493 18.9497,18.7151 19.5802,18.9564 0.1706,0.065 4.1027,-2.5819 8.7385,-5.8823 l 8.4289,-6.0007 0.092,65.0219 0.055,39.2762 h 23.2167 l -0.086,-56.5795 -0.092,-60.2258 -2.5363,-0.1814 -2.5358,-0.1808 1.2682,-0.9447 c 0.6974,-0.5195 10.6414,-7.6244 22.0978,-15.7882 43.2534,-30.8221 60.44588,-43.0818 64.51248,-46.0034 2.30769,-1.6579 4.38838,-3.0143 4.62348,-3.0143 0.45652,0 87.13944,64.9178 87.53264,65.5542 0.12829,0.2075 -0.0212,0.3772 -0.33176,0.3772 -0.5088,0 -0.56481,5.9289 -0.56481,60.3167 l 10e-4,56.67 h 23.07558 l 0.10801,-37.5259 0.18087,-63.0887 6.0544,4.4933 c 3.33,2.4712 6.18395,4.4928 6.34225,4.4928 0.15812,0 4.60338,-4.3179 9.87848,-9.5958 9.48899,-9.4941 9.58334,-9.6034 8.87283,-10.2795 -0.39499,-0.376 -7.80931,-5.8934 -16.4765,-12.2608 -16.01081,-11.7627 -46.1042,-33.9017 -68.10489,-50.1034 -48.70982,-35.87048 -56.6861,-41.66448 -57.12521,-41.49608 z"
       style="fill:url(#linearGradient2042);fill-opacity:1;stroke-width:0.36226061;filter:url(#filter2019)" />
  </g>
</svg>
